<mxfile host="app.diagrams.net" agent="Mozilla/5.0 (Windows NT 10.0; Win64; x64) AppleWebKit/537.36 (KHTML, like Gecko) Chrome/131.0.0.0 Safari/537.36" version="25.0.1">
  <diagram name="第 1 页" id="QOCwMrBnIq43eK7D7eR5">
    <mxGraphModel dx="1154" dy="509" grid="1" gridSize="10" guides="1" tooltips="1" connect="1" arrows="1" fold="1" page="1" pageScale="1" pageWidth="827" pageHeight="1169" math="0" shadow="0">
      <root>
        <mxCell id="0" />
        <mxCell id="1" parent="0" />
        <mxCell id="gspuCi2Y_kV68EbQ0AXD-1" value="" style="rounded=1;whiteSpace=wrap;html=1;rotation=-90;" vertex="1" parent="1">
          <mxGeometry x="287.5" y="312.5" width="152.5" height="62.5" as="geometry" />
        </mxCell>
        <mxCell id="gspuCi2Y_kV68EbQ0AXD-3" value="" style="rounded=1;whiteSpace=wrap;html=1;" vertex="1" parent="1">
          <mxGeometry x="330" y="120" width="100" height="100" as="geometry" />
        </mxCell>
        <mxCell id="gspuCi2Y_kV68EbQ0AXD-4" value="" style="rounded=1;whiteSpace=wrap;html=1;" vertex="1" parent="1">
          <mxGeometry x="490" y="255" width="160" height="160" as="geometry" />
        </mxCell>
        <mxCell id="gspuCi2Y_kV68EbQ0AXD-5" value="" style="rounded=0;whiteSpace=wrap;html=1;" vertex="1" parent="1">
          <mxGeometry x="175" y="360" width="50" height="40" as="geometry" />
        </mxCell>
        <mxCell id="gspuCi2Y_kV68EbQ0AXD-6" value="IMU" style="text;html=1;align=center;verticalAlign=middle;resizable=0;points=[];autosize=1;strokeColor=none;fillColor=none;" vertex="1" parent="1">
          <mxGeometry x="175" y="400" width="50" height="30" as="geometry" />
        </mxCell>
        <mxCell id="gspuCi2Y_kV68EbQ0AXD-7" value="MCU" style="text;html=1;align=center;verticalAlign=middle;resizable=0;points=[];autosize=1;strokeColor=none;fillColor=none;" vertex="1" parent="1">
          <mxGeometry x="340" y="420" width="50" height="30" as="geometry" />
        </mxCell>
        <mxCell id="gspuCi2Y_kV68EbQ0AXD-8" value="Raspberry 5" style="text;html=1;align=center;verticalAlign=middle;resizable=0;points=[];autosize=1;strokeColor=none;fillColor=none;" vertex="1" parent="1">
          <mxGeometry x="335" y="220" width="90" height="30" as="geometry" />
        </mxCell>
        <mxCell id="gspuCi2Y_kV68EbQ0AXD-9" value="camera" style="text;html=1;align=center;verticalAlign=middle;resizable=0;points=[];autosize=1;strokeColor=none;fillColor=none;" vertex="1" parent="1">
          <mxGeometry x="170" y="190" width="60" height="30" as="geometry" />
        </mxCell>
        <mxCell id="gspuCi2Y_kV68EbQ0AXD-10" value="IMX 219" style="rounded=0;whiteSpace=wrap;html=1;" vertex="1" parent="1">
          <mxGeometry x="170" y="160" width="60" height="30" as="geometry" />
        </mxCell>
        <mxCell id="gspuCi2Y_kV68EbQ0AXD-11" value="Laptop" style="text;html=1;align=center;verticalAlign=middle;resizable=0;points=[];autosize=1;strokeColor=none;fillColor=none;" vertex="1" parent="1">
          <mxGeometry x="540" y="415" width="60" height="30" as="geometry" />
        </mxCell>
        <mxCell id="gspuCi2Y_kV68EbQ0AXD-15" value="" style="shape=flexArrow;endArrow=classic;html=1;rounded=0;" edge="1" parent="1">
          <mxGeometry width="50" height="50" relative="1" as="geometry">
            <mxPoint x="250" y="174.66" as="sourcePoint" />
            <mxPoint x="315" y="174.66" as="targetPoint" />
          </mxGeometry>
        </mxCell>
        <mxCell id="gspuCi2Y_kV68EbQ0AXD-17" value="CSI" style="edgeLabel;html=1;align=center;verticalAlign=middle;resizable=0;points=[];" vertex="1" connectable="0" parent="gspuCi2Y_kV68EbQ0AXD-15">
          <mxGeometry x="-0.4546" y="-1" relative="1" as="geometry">
            <mxPoint x="2" y="-16" as="offset" />
          </mxGeometry>
        </mxCell>
        <mxCell id="gspuCi2Y_kV68EbQ0AXD-19" value="TCP/VPN" style="text;html=1;align=center;verticalAlign=middle;resizable=0;points=[];autosize=1;strokeColor=none;fillColor=none;" vertex="1" parent="1">
          <mxGeometry x="445" y="128" width="80" height="30" as="geometry" />
        </mxCell>
        <mxCell id="gspuCi2Y_kV68EbQ0AXD-20" value="AP" style="ellipse;whiteSpace=wrap;html=1;aspect=fixed;" vertex="1" parent="1">
          <mxGeometry x="550" y="150" width="40" height="40" as="geometry" />
        </mxCell>
        <mxCell id="gspuCi2Y_kV68EbQ0AXD-21" value="" style="shape=flexArrow;endArrow=classic;html=1;rounded=0;" edge="1" parent="1">
          <mxGeometry width="50" height="50" relative="1" as="geometry">
            <mxPoint x="455" y="169.66" as="sourcePoint" />
            <mxPoint x="540" y="170" as="targetPoint" />
          </mxGeometry>
        </mxCell>
        <mxCell id="gspuCi2Y_kV68EbQ0AXD-22" value="" style="shape=flexArrow;endArrow=classic;html=1;rounded=0;width=14.482758620689655;endSize=5.413793103448276;" edge="1" parent="1">
          <mxGeometry width="50" height="50" relative="1" as="geometry">
            <mxPoint x="569.66" y="195" as="sourcePoint" />
            <mxPoint x="569.66" y="255" as="targetPoint" />
          </mxGeometry>
        </mxCell>
        <mxCell id="gspuCi2Y_kV68EbQ0AXD-23" value="TCP/VPN" style="text;html=1;align=center;verticalAlign=middle;resizable=0;points=[];autosize=1;strokeColor=none;fillColor=none;" vertex="1" parent="1">
          <mxGeometry x="570" y="198" width="80" height="30" as="geometry" />
        </mxCell>
        <mxCell id="gspuCi2Y_kV68EbQ0AXD-24" value="" style="shape=flexArrow;endArrow=classic;startArrow=classic;html=1;rounded=0;endWidth=4.827586206896552;endSize=7.896551724137931;startWidth=4.827586206896552;startSize=5.827586206896552;" edge="1" parent="1">
          <mxGeometry width="100" height="100" relative="1" as="geometry">
            <mxPoint x="430" y="220" as="sourcePoint" />
            <mxPoint x="490" y="262.5" as="targetPoint" />
          </mxGeometry>
        </mxCell>
        <mxCell id="gspuCi2Y_kV68EbQ0AXD-25" value="SSH" style="text;html=1;align=center;verticalAlign=middle;resizable=0;points=[];autosize=1;strokeColor=none;fillColor=none;" vertex="1" parent="1">
          <mxGeometry x="445" y="208" width="50" height="30" as="geometry" />
        </mxCell>
        <mxCell id="gspuCi2Y_kV68EbQ0AXD-27" value="" style="shape=flexArrow;endArrow=classic;startArrow=classic;html=1;rounded=0;width=6.8965517241379315;startSize=5.586206896551724;" edge="1" parent="1">
          <mxGeometry width="100" height="100" relative="1" as="geometry">
            <mxPoint x="480" y="360" as="sourcePoint" />
            <mxPoint x="400" y="360" as="targetPoint" />
          </mxGeometry>
        </mxCell>
        <mxCell id="gspuCi2Y_kV68EbQ0AXD-28" value="" style="shape=flexArrow;endArrow=classic;startArrow=classic;html=1;rounded=0;" edge="1" parent="1">
          <mxGeometry width="100" height="100" relative="1" as="geometry">
            <mxPoint x="325" y="389.65" as="sourcePoint" />
            <mxPoint x="230" y="389.30999999999995" as="targetPoint" />
          </mxGeometry>
        </mxCell>
        <mxCell id="gspuCi2Y_kV68EbQ0AXD-29" value="I2C" style="text;html=1;align=center;verticalAlign=middle;resizable=0;points=[];autosize=1;strokeColor=none;fillColor=none;" vertex="1" parent="1">
          <mxGeometry x="260" y="360" width="40" height="30" as="geometry" />
        </mxCell>
        <mxCell id="gspuCi2Y_kV68EbQ0AXD-30" value="UART" style="text;html=1;align=center;verticalAlign=middle;resizable=0;points=[];autosize=1;strokeColor=none;fillColor=none;" vertex="1" parent="1">
          <mxGeometry x="410" y="330" width="60" height="30" as="geometry" />
        </mxCell>
        <mxCell id="gspuCi2Y_kV68EbQ0AXD-32" value="图像" style="text;html=1;align=center;verticalAlign=middle;resizable=0;points=[];autosize=1;strokeColor=none;fillColor=none;" vertex="1" parent="1">
          <mxGeometry x="250" y="178" width="50" height="30" as="geometry" />
        </mxCell>
        <mxCell id="gspuCi2Y_kV68EbQ0AXD-33" value="图像" style="text;html=1;align=center;verticalAlign=middle;resizable=0;points=[];autosize=1;strokeColor=none;fillColor=none;" vertex="1" parent="1">
          <mxGeometry x="520" y="198" width="50" height="30" as="geometry" />
        </mxCell>
        <mxCell id="gspuCi2Y_kV68EbQ0AXD-34" value="图像" style="text;html=1;align=center;verticalAlign=middle;resizable=0;points=[];autosize=1;strokeColor=none;fillColor=none;" vertex="1" parent="1">
          <mxGeometry x="460" y="178" width="50" height="30" as="geometry" />
        </mxCell>
        <mxCell id="gspuCi2Y_kV68EbQ0AXD-35" value="指令" style="text;html=1;align=center;verticalAlign=middle;resizable=0;points=[];autosize=1;strokeColor=none;fillColor=none;" vertex="1" parent="1">
          <mxGeometry x="420" y="238" width="50" height="30" as="geometry" />
        </mxCell>
        <mxCell id="gspuCi2Y_kV68EbQ0AXD-36" value="指令" style="text;html=1;align=center;verticalAlign=middle;resizable=0;points=[];autosize=1;strokeColor=none;fillColor=none;" vertex="1" parent="1">
          <mxGeometry x="415" y="360" width="50" height="30" as="geometry" />
        </mxCell>
        <mxCell id="gspuCi2Y_kV68EbQ0AXD-37" value="传感器数据/指令" style="text;html=1;align=center;verticalAlign=middle;resizable=0;points=[];autosize=1;strokeColor=none;fillColor=none;" vertex="1" parent="1">
          <mxGeometry x="220" y="410" width="110" height="30" as="geometry" />
        </mxCell>
        <mxCell id="gspuCi2Y_kV68EbQ0AXD-38" value="" style="whiteSpace=wrap;html=1;" vertex="1" parent="1">
          <mxGeometry x="160" y="268" width="80" height="40" as="geometry" />
        </mxCell>
        <mxCell id="gspuCi2Y_kV68EbQ0AXD-39" value="接收机" style="text;html=1;align=center;verticalAlign=middle;resizable=0;points=[];autosize=1;strokeColor=none;fillColor=none;" vertex="1" parent="1">
          <mxGeometry x="170" y="308" width="60" height="30" as="geometry" />
        </mxCell>
        <mxCell id="gspuCi2Y_kV68EbQ0AXD-41" value="" style="shape=singleArrow;whiteSpace=wrap;html=1;arrowWidth=0.4;arrowSize=0.4;" vertex="1" parent="1">
          <mxGeometry x="250" y="278" width="70" height="20" as="geometry" />
        </mxCell>
        <mxCell id="gspuCi2Y_kV68EbQ0AXD-42" value="6路 PWM" style="text;html=1;align=center;verticalAlign=middle;resizable=0;points=[];autosize=1;strokeColor=none;fillColor=none;" vertex="1" parent="1">
          <mxGeometry x="245" y="248" width="70" height="30" as="geometry" />
        </mxCell>
        <mxCell id="gspuCi2Y_kV68EbQ0AXD-43" value="指令" style="text;html=1;align=center;verticalAlign=middle;resizable=0;points=[];autosize=1;strokeColor=none;fillColor=none;" vertex="1" parent="1">
          <mxGeometry x="255" y="298" width="50" height="30" as="geometry" />
        </mxCell>
      </root>
    </mxGraphModel>
  </diagram>
</mxfile>
